<?xml version="1.0" encoding="UTF-8" standalone="no"?>
<!-- Created with Inkscape (http://www.inkscape.org/) -->

<svg
   width="210mm"
   height="297mm"
   viewBox="0 0 210 297"
   version="1.1"
   id="svg5"
   xml:space="preserve"
   sodipodi:docname="54f539cd-b993-4e05-93e9-b1ddc863ad5a.svg"
   xmlns:inkscape="http://www.inkscape.org/namespaces/inkscape"
   xmlns:sodipodi="http://sodipodi.sourceforge.net/DTD/sodipodi-0.dtd"
   xmlns="http://www.w3.org/2000/svg"
   xmlns:svg="http://www.w3.org/2000/svg"><sodipodi:namedview
     id="namedview1"
     pagecolor="#ffffff"
     bordercolor="#000000"
     borderopacity="0.25"
     inkscape:showpageshadow="2"
     inkscape:pageopacity="0.0"
     inkscape:pagecheckerboard="0"
     inkscape:deskcolor="#d1d1d1"
     inkscape:document-units="mm" /><defs
     id="defs2"><linearGradient
       id="linearGradient1392-1"><stop
         style="stop-color:#d701f6;stop-opacity:1;"
         offset="0"
         id="stop1388" /><stop
         style="stop-color:#d7e090;stop-opacity:0;"
         offset="1"
         id="stop1390" /></linearGradient></defs><g
     id="layer1"><ellipse
       style="display:inline;opacity:1;fill:#5f9ef1;fill-opacity:1;stroke:none;stroke-width:0.1854;stroke-dasharray:none;stroke-opacity:1"
       id="path1348"
       cx="25.356693"
       cy="42.87101"
       rx="21.062412"
       ry="21.313904" /><path
       style="opacity:1;fill:#426394;fill-opacity:1;stroke:#333b7d;stroke-width:1.04537;stroke-dasharray:none;stroke-opacity:1"
       d="m 5.4888651,48.152333 0.8487836,-0.565854 c 3.9346593,-1.961052 6.3628103,-0.384596 6.9788893,0.188619 l 23.231528,0.408673 c 2.568561,-2.43859 5.431696,-1.710513 8.330656,-0.597292 l 0.440111,0.220054 C 42.155271,59.211785 34.517527,63.84322 25.482439,63.744808 17.299542,63.930804 8.2199117,57.831465 5.4888651,48.152333 Z"
       id="path1980" /><path
       style="display:inline;opacity:1;fill:#ece0bf;fill-opacity:1;stroke:#352a68;stroke-width:1.09703;stroke-dasharray:none;stroke-opacity:1"
       d="m 8.6350136,46.607536 c 0.1914638,-3.537735 2.3752724,-5.94894 4.1210624,-7.846144 3.036903,-2.59163 0.9356,-4.69048 1.349533,-7.559017 0.266881,-1.926951 0.448138,-3.685554 3.832086,-5.684276 1.06261,-0.439011 2.310186,-0.942046 3.798742,-1.011904 l -0.0408,-14.7700296 c -0.0092,-0.9236085 0.439301,-1.4765435 1.341274,-1.4827853 l 4.948654,0.00584 c 0.877443,0.014817 1.181761,0.5469314 1.178253,1.4521337 L 29.148103,24.6436 c 1.934727,-0.0079 2.838012,0.490768 3.568525,0.911657 1.911724,0.820628 2.863536,2.120082 3.650674,4.088876 0.435921,1.347283 0.469975,2.734902 0.273491,4.069671 -0.711714,2.088529 -0.179063,3.60045 1.101851,4.693234 0,0 1.19246,1.066108 1.85768,2.010729 0.510674,0.725162 1.608189,2.390371 1.608189,2.390371 0.123403,0.185406 0.59891,1.031315 0.841762,2.076347 0.136501,0.587371 0.188865,1.245076 0.05593,1.681046 -0.203092,0.01119 -0.338283,-0.02232 -0.636669,-0.01297 -0.541534,0.01694 -1.162996,0.03773 -1.584862,0.08752 -1.520861,0.179506 -2.954769,0.868268 -5.134002,3.121038 -2.263126,2.090536 -2.471512,2.257581 -4.077687,3.080655 -1.590984,1.104059 -5.100707,1.422833 -8.352942,0.829116 C 20.027141,53.127976 17.985408,51.784266 16.114375,49.868657 14.50637,48.677052 13.423128,47.1055 10.559334,46.581181 Z"
       id="path378" /><g
       id="g1509"
       transform="matrix(0.30746262,0,0,0.30746262,-4.0049391,-5.1638636)"><ellipse
         style="display:inline;opacity:1;fill:none;fill-opacity:1;stroke:#352a68;stroke-width:3.693;stroke-dasharray:none;stroke-opacity:1"
         id="path1138"
         cx="68.836273"
         cy="151.04001"
         rx="3.7972717"
         ry="3.8984699" /><ellipse
         style="opacity:1;fill:none;fill-opacity:1;stroke:#352a68;stroke-width:3.69294;stroke-dasharray:none;stroke-opacity:1"
         id="ellipse1140"
         cx="122.61701"
         cy="151.04001"
         rx="3.7972717"
         ry="3.8984699" /><path
         style="opacity:1;fill:#352a68;fill-opacity:1;stroke:#352a68;stroke-width:0.600001;stroke-dasharray:none;stroke-opacity:1"
         d="m 84.479722,122.74481 c 7.241114,-5.13991 17.343488,-3.36267 22.851698,-0.15336 l -0.71571,3.39964 c -7.405503,-6.14874 -14.748015,-5.49559 -21.496959,0.28117 z"
         id="path1232" /><path
         id="path1142"
         style="display:inline;opacity:1;fill:#352a68;fill-opacity:1;stroke:#352a68;stroke-width:0.6;stroke-dasharray:none;stroke-opacity:1"
         d="m 95.757979,54.492281 c -0.750506,0.01808 -1.496376,0.648745 -1.488281,1.857251 l -0.04858,62.636488 c -1.055593,0.0913 -2.147737,0.28874 -3.283004,0.61185 l 0.09819,-63.184259 c -0.0095,-1.242488 -0.764648,-1.837091 -1.515153,-1.819011 -0.750513,0.01808 -1.496377,0.648753 -1.488282,1.857251 l -0.05013,64.236909 c -0.893941,0.40319 -1.81237,0.87881 -2.761588,1.4428 V 98.205892 l -3.98787,0.204639 v 26.839189 c -3.257599,4.05571 -3.543637,8.11151 -3.731556,12.16722 0.323703,3.71484 1.669932,7.08917 4.038514,10.12237 l -0.204639,17.58601 -4.856551,0.2558 c -1.628582,8.56805 5.409052,10.80175 7.361824,11.65562 8.10338,2.5384 16.07606,3.2036 23.771677,-0.10232 1.15771,-1.05759 8.93173,-3.47367 6.95255,-11.65562 l -4.39663,-0.20464 -0.15296,-17.68832 c 2.07711,-3.5539 3.71548,-7.32731 3.62975,-11.96258 -0.39296,-3.52066 -1.36717,-6.90726 -3.52743,-10.02006 l -0.10232,-26.736871 -3.68092,-0.102319 0.0512,23.72052 c -1.0096,-0.56895 -2.03322,-1.09704 -3.07836,-1.5627 l 0.10025,-64.410538 c -0.009,-1.242489 -0.76418,-1.837092 -1.51463,-1.819011 -0.75052,0.01808 -1.4969,0.648745 -1.4888,1.857251 l -0.0491,63.276758 c -1.028669,-0.29795 -2.085291,-0.51468 -3.17965,-0.62167 L 97.27317,56.311292 C 97.26367,55.068803 96.50853,54.4742 95.758017,54.492281 Z m -1.55391,65.100939 -0.466638,30.75626 c -0.363962,0.1372 -2.246973,-0.0964 -2.594674,-0.49196 l -0.21084,-29.63178 c 1.241158,-0.40536 2.377496,-0.54242 3.272152,-0.63252 z m 3.009635,0.0444 c 1.084456,0.0839 2.11498,0.32882 3.115576,0.62838 l -0.28732,30.01781 c -0.660522,0.17605 -2.165501,0.0826 -2.631885,-0.003 l -0.196371,-30.64257 z m -9.227343,1.70377 -0.250631,27.342 c -0.753625,-0.34301 -1.485726,-0.62703 -2.474268,-1.62212 l -0.04496,-24.24193 c 0.900257,-0.50585 1.758618,-1.03552 2.769857,-1.47795 z m 15.327749,0.046 c 1.20866,0.52262 2.07083,1.05471 3.06544,1.58957 l -0.19068,23.92929 c -0.39493,0.27401 -2.16486,2.39198 -2.63912,1.99419 z m 3.07164,29.88345 0.0512,13.90561 h -2.97501 l -0.0925,-12.21837 -0.11782,-0.0222 c 1.05635,-0.46302 2.10104,-1.01969 3.13417,-1.66501 z m -21.215755,0.15348 c 0.945813,0.55482 1.881983,1.03232 2.808614,1.43609 l -0.04444,12.31604 h -2.661853 z m 5.786727,2.49029 c 1.097994,0.29846 2.182963,0.49265 3.255098,0.58756 l -0.03876,10.67428 h -3.131075 z m 9.441798,0.0315 -0.0408,11.23032 h -3.083534 l -0.08061,-10.6655 c 1.080837,-0.0895 2.148948,-0.27979 3.204974,-0.56482 z" /><g
         id="g1499"><path
           style="opacity:1;fill:#352a68;fill-opacity:1;stroke:#352a68;stroke-width:0.600001;stroke-dasharray:none;stroke-opacity:1"
           d="m 81.872481,55.416653 -5.342287,1e-6 c -1.556106,-1.551491 -3.735054,-1.047216 -4.447647,1.048009 l -0.02556,3.859739 c 0.06295,2.831195 4.755742,2.827773 4.933311,0.204489 l -0.02556,-1.993771 4.958869,0.102243 z"
           id="path1288" /><path
           style="opacity:1;fill:#352a68;fill-opacity:1;stroke:#352a68;stroke-width:0.600001;stroke-dasharray:none;stroke-opacity:1"
           d="m 81.923603,64.439752 -5.342287,10e-7 c -1.556106,-1.551491 -3.735054,-1.047216 -4.447647,1.048009 l -0.02556,3.859739 c 0.06295,2.831195 4.755742,2.827773 4.933311,0.204489 l -0.02556,-1.993771 4.958869,0.102243 z"
           id="path1290" /><path
           style="opacity:1;fill:#352a68;fill-opacity:1;stroke:#352a68;stroke-width:0.600001;stroke-dasharray:none;stroke-opacity:1"
           d="m 109.53715,55.257912 5.34229,1e-6 c 1.55611,-1.551491 3.73506,-1.047216 4.44765,1.048009 l 0.0256,3.859739 c -0.063,2.831195 -4.75574,2.827773 -4.93331,0.204489 l 0.0256,-1.993771 -4.95887,0.102243 z"
           id="path1292" /><path
           style="opacity:1;fill:#352a68;fill-opacity:1;stroke:#352a68;stroke-width:0.600001;stroke-dasharray:none;stroke-opacity:1"
           d="m 109.46485,64.51205 5.34229,10e-7 c 1.55611,-1.551491 3.73506,-1.047216 4.44765,1.048009 l 0.0256,3.859739 c -0.063,2.831195 -4.75574,2.827773 -4.93331,0.204489 l 0.0256,-1.993771 -4.95887,0.102243 z"
           id="path1294" /></g></g><ellipse
       style="opacity:1;fill:#e8e6f4;fill-opacity:1;stroke:none;stroke-width:4.17387;stroke-dasharray:none;stroke-opacity:1"
       id="path4036"
       cx="22.641977"
       cy="46.921665"
       rx="0.47236452"
       ry="0.46998283" /><ellipse
       style="opacity:1;fill:#e8e6f4;fill-opacity:1;stroke:none;stroke-width:4.17387;stroke-dasharray:none;stroke-opacity:1"
       id="ellipse4194"
       cx="24.509205"
       cy="46.921665"
       rx="0.47236452"
       ry="0.46998283" /><ellipse
       style="opacity:1;fill:#e8e6f4;fill-opacity:1;stroke:none;stroke-width:4.17387;stroke-dasharray:none;stroke-opacity:1"
       id="ellipse4196"
       cx="26.409779"
       cy="46.921665"
       rx="0.47236452"
       ry="0.46998283" /><ellipse
       style="opacity:1;fill:#e8e6f4;fill-opacity:1;stroke:none;stroke-width:4.17387;stroke-dasharray:none;stroke-opacity:1"
       id="ellipse4198"
       cx="28.288122"
       cy="46.921665"
       rx="0.47236452"
       ry="0.46998283" /></g></svg>
